<?xml version="1.0" standalone="no"?>
<!DOCTYPE svg PUBLIC "-//W3C//DTD SVG 1.1//EN" "http://www.w3.org/Graphics/SVG/1.1/DTD/svg11.dtd" >
<svg xmlns="http://www.w3.org/2000/svg">
<metadata>Generated by IcoMoon</metadata>
<defs>
<font id="icomoon" horiz-adv-x="1024">
<font-face units-per-em="1024" ascent="960" descent="-64" />
<missing-glyph horiz-adv-x="1024" />
<glyph unicode="&#x20;" horiz-adv-x="512" d="" />
<glyph unicode="&#x63;" d="M794.388 147.889c124.062 127.606 101.218 398.178-109.883 439.138-157.932 30.326-201.255 51.594-260.332 138.24-37.022 54.351-120.517 131.938-235.126 70.892-128.788-68.529-140.209-366.671-23.631-555.717 163.84-265.452 474.978-250.88 628.972-92.554z" />
<glyph unicode="&#x64;" d="M870.794 472.812c37.415-75.225 38.203-110.277 27.569-230.006-2.757-33.083 7.089-49.231 21.662-57.502 29.932-17.329 80.345 36.234 87.040 107.52 8.665 93.735-38.203 150.449-64.591 176.049-31.508 30.72-57.895 46.474-70.105 41.748-11.028-3.938-12.209-16.148-1.575-37.809z" />
<glyph unicode="&#x65;" d="M102.794 724.874c27.963 64.197 67.742 88.222 119.729 110.277 24.025 10.24-5.12 61.44-88.222 60.258-83.495-0.788-121.698-59.471-124.455-112.64-3.151-60.652 68.923-112.64 92.948-57.895z" />
<glyph unicode="&#x66;" d="M265.058 851.692c6.302-4.726 45.292-2.757 49.625 14.966 3.151 14.178-27.963 44.111-48.049 19.298-8.271-10.634-12.603-25.994-1.575-34.265z" />
<glyph unicode="&#x67;" d="M380.062 135.286c0 0-1.182-24.812 1.182-27.963 2.363-2.757 28.357-11.815 31.902-14.178s14.572-3.545 16.935 2.757c2.363 6.302-6.302 12.997-11.815 17.723-5.12 4.726-14.572 10.634-16.542 15.36-1.575 4.726-1.575 8.665-1.575 8.665l-20.086-2.363z" />
<glyph unicode="&#x68;" d="M430.080 95.902c1.969 5.12-3.151 9.846-7.877 14.178-1.575-0.394-3.545-0.788-5.12-1.969-7.483-3.545-9.452-5.908-9.452-5.908l-27.963 12.209c0-3.545 0.394-6.695 1.182-7.483 2.363-2.757 28.357-11.815 31.902-14.178 3.545-1.969 14.966-3.151 17.329 3.151z" />
<glyph unicode="&#x69;" d="M295.778 115.2c-3.151 0-6.302 0.394-9.452 0.788-10.24 1.969-12.603 6.302-12.997 9.846-1.182 10.634 16.148 26.388 43.717 39.385 5.514 2.757 12.603 4.726 20.48 6.695 9.452 48.443 14.966 263.089 14.966 265.058h1.969c0-2.363-5.514-214.252-14.966-264.665 48.837 11.028 131.151 7.877 178.806 6.302 67.348-2.363 98.068-3.938 98.068-3.938v-1.969c-0.394 0-31.114 1.182-98.068 3.938-47.655 1.969-130.757 4.726-179.2-6.302 0-0.788-0.394-1.575-0.394-2.363-9.452-36.628-22.055-52.775-42.929-52.775zM337.132 169.945c-7.483-1.969-13.785-3.938-19.298-6.302-26.388-12.209-44.111-27.569-42.535-37.415 0.788-5.12 6.695-7.089 11.815-8.271 25.6-4.726 39.778 9.846 50.018 50.412-0.394 0.394-0.394 1.182 0 1.575z" />
<glyph unicode="&#x6a;" d="M526.572 288.886l42.535 16.542 148.874-5.908-26.782-20.874z" />
<glyph unicode="&#x6b;" d="M717.982 299.52l-4.726-159.114-28.357-23.237 6.302 161.477z" />
<glyph unicode="&#x6c;" d="M528.542 338.905c0 0-9.452-16.542-8.271-20.48s20.48-7.483 29.538-13.391c8.665-5.908 16.935-7.483 22.449-5.908 5.12 1.575 9.846 1.182 7.483 7.483s-9.452 5.12-14.572 8.271c-5.12 2.757-16.935 17.723-18.117 19.298-1.575 1.969-18.511 4.726-18.511 4.726z" />
<glyph unicode="&#x6d;" d="M566.745 314.092c-0.788-0.394-1.575-1.182-2.363-2.363-2.757-3.938-3.545-7.089-3.545-7.089s-8.271 6.302-21.268 11.815c-8.665 3.545-15.36 5.12-18.905 5.908-0.394-1.575-0.788-3.151-0.394-4.332 1.182-3.938 20.48-7.483 29.538-13.391 8.665-5.908 16.935-7.483 22.449-5.908 5.12 1.575 9.846 1.182 7.483 7.483-1.969 6.302-7.877 5.908-12.997 7.877z" />
<glyph unicode="&#x6e;" d="M421.809 771.742c0 0 33.083-3.938 38.203-15.754s27.175-107.52 28.751-112.64c1.575-5.12 46.080-14.572 72.468-14.572s15.754-2.757 7.483-8.271c-8.271-5.12-33.083-11.028-58.289-14.572s-42.535-1.182-50.018 9.846c-7.483 11.028-18.905 65.378-26.388 102.006-7.483 36.234-12.209 53.957-12.209 53.957z" />
<glyph unicode="&#x6f;" d="M460.012 755.988c-5.12 11.815-38.203 15.754-38.203 15.754s4.726-17.723 12.209-54.351c2.363-11.815 5.514-25.994 8.271-39.385 2.363 0.394 5.514 0.788 8.665 1.575 8.271 1.969 18.905 7.877 25.994 12.209-6.695 27.963-14.178 57.895-16.935 64.197z" />
<glyph unicode="&#x70;" d="M320.591 625.625l-9.846-47.655 5.12 0.788 12.997 42.929z" />
<glyph unicode="&#x71;" d="M617.157 519.286c-20.48 19.298-96.098 22.843-126.818 28.751-7.483 1.575-13.391 2.757-18.117 3.938-9.058 41.748-31.114 122.092-35.052 165.415-0.788 10.634-5.12 60.652-25.206 55.532-38.203-9.452-105.551-28.751-107.914-77.194-1.969-38.991 14.178-80.738 21.662-118.942 3.545-18.905 7.089-35.052 10.24-48.443h-0.394c0 0 32.295-146.905 32.295-170.929s-4.726-37.022-5.908-72.468c-1.182-35.446 14.178-147.692 17.723-150.055s11.028-2.363 14.572-1.182c3.545 1.182 3.938-0.394 5.12 3.545s7.089 83.102 11.028 168.566c3.938 85.465 18.905 150.843 44.111 168.566s128 15.36 128.394 2.363c0.394-12.997-57.895-135.483-55.532-137.846s15.36-5.908 18.117-4.726c2.757 1.182 58.289 90.978 76.012 121.305 19.298 31.114 16.148 44.505-4.332 63.803z" />
<glyph unicode="&#x72;" d="M412.751 782.769c0 0 13.785-105.157 51.2-159.508l10.634-7.483c1.969 0-33.871 80.345-50.018 166.991h-11.815z" />
<glyph unicode="&#x73;" d="M410.388 759.532c-2.363 2.757-4.332 5.12-6.302 7.877-5.908 8.271-3.545 25.6 3.151 31.902-0.788 1.182-1.182 2.363-1.969 3.545-7.877 10.634-29.932 6.302-37.415-2.363 1.969-3.151 3.545-5.908 3.545-8.271 0.394-6.695-1.969-16.935-6.695-27.963-1.182-3.151-7.089-6.302-11.422-10.24 6.302-11.028 24.418-35.446 32.295-39.385 9.058-4.726 22.055 33.477 24.812 44.898z" />
<glyph unicode="&#x74;" d="M403.298 793.797c1.182 2.757 3.151 5.514 5.12 6.695 7.877 4.726 26.782 11.028 31.508 20.48 0 0 2.363 14.178-8.665 27.569-11.028 13.785-32.689 20.874-49.625 15.36-22.843-7.483-27.569-28.357-22.843-43.717 2.757-8.665 8.271-16.935 11.422-23.631 4.726-1.182 11.422-2.363 20.086-2.757 3.938-0.394 8.665-0.394 12.997 0z" />
<glyph unicode="&#x75;" d="M388.726 811.52c0 0-5.514 16.542-12.209 16.542s-9.846-16.148-6.695-24.025c3.151-7.877 9.058-4.726 9.058-4.726s5.12-17.329 8.665-22.449c3.545-4.726 15.36-16.542 29.145-16.542 5.908 0 13.785 29.538 15.754 41.354s1.969 16.542-1.182 25.994c-3.151 9.452-16.148 3.545-27.175-4.332-11.422-8.665-15.36-11.815-15.36-11.815z" />
<glyph unicode="&#x76;" d="M403.298 818.609c0 0 3.938 6.695 9.058 3.938 5.514-2.757 10.24-18.117 16.148-14.572s6.695 14.178 11.028 10.24c4.332-3.938 22.449-12.603 29.538-8.665s3.545 18.905-3.545 20.48c-6.695 1.575-14.572-0.394-11.028 6.302s8.271 11.815 0.394 18.905c-7.877 7.089-12.209-4.726-20.874-9.058s-18.117-2.363-18.117-2.363z" />
<glyph unicode="&#x77;" d="M400.542 491.323c-20.48-9.058-39.385-11.422-54.351-11.422 9.452-44.898 22.055-106.732 22.055-121.698 0-24.025-4.726-37.022-5.908-72.468s14.178-147.692 17.723-150.055c3.545-2.363 11.028-2.363 14.572-1.182s3.938-0.394 5.12 3.545c1.182 3.938 7.089 83.102 11.028 168.566s18.905 150.843 44.111 168.566c25.206 17.723 128 15.36 128.394 2.363s-57.895-135.483-55.532-137.846c2.363-2.363 15.36-5.908 18.117-4.726s58.289 90.978 76.012 121.305 14.572 44.111-5.908 63.803c-20.48 19.298-96.098 22.843-126.818 28.751-7.483 1.575-13.391 2.757-18.117 3.938-3.938-7.483-25.206-41.748-70.498-61.44z" />
<glyph unicode="&#x78;" d="M340.677 437.76l3.545-8.271c0.788-1.575 2.363-2.757 4.332-3.151h6.695c1.969 0 3.938 1.182 4.726 3.151l3.938 9.452-23.237-1.182z" />
<glyph unicode="&#x79;" d="M489.157 588.603c1.575 3.545-4.726 14.572-6.302 17.723-13.391 25.206-51.594 25.994-68.135 3.938-5.908-7.877-9.452-18.511-17.329-24.812-16.935-13.391-41.354 2.757-59.471 5.12-39.778 4.332-66.954-33.871-65.772-70.105 0.788-33.871 22.449-66.56 53.169-81.132 1.575-0.788 3.151-1.575 4.726-1.969 35.84-14.178 70.498 3.151 90.191 34.265 5.908 9.452 11.028 19.298 16.935 28.357 3.151 4.726 7.089 9.452 12.603 11.815 10.634 4.332 24.418 1.182 35.84 4.332 7.877 2.363 19.692 6.302 23.631 14.572 4.332 9.058-1.182 9.452-8.665 9.058s-16.542 6.695-17.329 20.086c-1.182 12.997 5.908 28.751 5.908 28.751z" />
<glyph unicode="&#x7a;" d="M412.751 498.412c1.969-4.332 7.483-5.12 11.028-1.969l59.471 60.258c0 0.788-0.394 1.575-0.394 2.363 0 3.151 0 6.302 0.394 9.452l-30.326 7.483-6.302 12.997-24.025-12.209 11.028-20.086-42.142-16.148 21.268-42.142z" />
<glyph unicode="&#x7b;" d="M453.317 576.394l9.846-20.48 212.677 109.095-7.483 16.148z" />
<glyph unicode="&#x7c;" d="M668.357 681.157l5.12 19.692c0 0 16.935-3.545 37.022 14.572 0 0 14.572-13.391 17.723-36.234 0 0-28.751-6.302-34.265-20.874l-18.117 6.695-7.483 16.148z" />
<glyph unicode="&#x7d;" d="M686.868 689.822c0 1.575-1.575 2.757-3.151 2.757s-2.757-1.575-2.757-3.151c0-1.575 1.575-2.757 3.151-2.757 1.969 0 3.151 1.575 2.757 3.151z" />
<glyph unicode="&#x7e;" d="M696.714 694.154c0 1.575-1.575 2.757-3.151 2.757s-2.757-1.575-2.757-3.151c0-1.575 1.575-2.757 3.151-2.757 1.575 0.394 2.757 1.575 2.757 3.151z" />
<glyph unicode="&#x7f;" d="M706.166 698.486c0-1.523-1.234-2.757-2.757-2.757s-2.757 1.234-2.757 2.757c0 1.523 1.234 2.757 2.757 2.757s2.757-1.234 2.757-2.757z" />
<glyph unicode="&#x80;" d="M694.745 673.674c0 1.575-1.575 2.757-3.151 2.757s-2.757-1.575-2.757-3.151c0-1.575 1.575-2.757 3.151-2.757s2.757 1.575 2.757 3.151z" />
<glyph unicode="&#x81;" d="M704.197 678.4c0 1.575-1.575 2.757-3.151 2.757s-2.757-1.575-2.757-3.151c0-1.575 1.575-2.757 3.151-2.757s2.757 1.575 2.757 3.151z" />
<glyph unicode="&#x82;" d="M713.649 683.126c0 1.575-1.575 2.757-3.151 2.757s-2.757-1.575-2.757-3.151c0-1.575 1.575-2.757 3.151-2.757 1.969 0 3.151 1.575 2.757 3.151z" />
<glyph unicode="&#x83;" d="M378.486 503.532l-20.086 42.142c-0.788 1.182 0 2.757 1.182 3.545v0c1.182 0.788 2.757 0 3.545-1.182l20.086-42.142c0.788-1.182 0-2.757-1.182-3.545v0c-1.182-0.394-2.757 0-3.545 1.182z" />
<glyph unicode="&#x84;" d="M348.554 470.055c-0.394 2.757-2.757 5.12-5.514 4.726s-5.12-2.757-4.726-5.514c0.394-2.757 2.757-5.12 5.514-4.726s5.12 2.363 4.726 5.514z" />
<glyph unicode="&#x85;" d="M387.545 464.542c-0.394 2.757-2.757 5.12-5.514 4.726s-5.12-2.757-4.726-5.514c0.394-2.757 2.757-5.12 5.514-4.726 2.757 0 5.12 2.363 4.726 5.514z" />
<glyph unicode="&#x86;" d="M369.428 487.385c-0.394 2.757-2.757 5.12-5.514 4.726s-5.12-2.757-4.726-5.514c0.394-2.757 2.757-5.12 5.514-4.726s4.726 2.757 4.726 5.514z" />
<glyph unicode="&#x87;" d="M529.723 613.809l-1.969-1.182 9.058-18.905 2.363 1.182z" />
<glyph unicode="&#x88;" d="M545.083 621.292l-1.969-1.182 8.665-18.905 2.363 1.182z" />
<glyph unicode="&#x89;" d="M510.031 603.963l-2.363-0.788 9.452-19.692 2.363 1.182z" />
<glyph unicode="&#x8a;" d="M560.443 628.775l-2.363-1.182 9.058-18.511 1.969 1.182z" />
<glyph unicode="&#x8b;" d="M491.52 594.905l-2.363-0.788 9.452-20.086 2.363 1.182z" />
<glyph unicode="&#x8c;" d="M477.735 563.397l2.363 1.182-9.452 20.086-2.363-0.788z" />
<glyph unicode="&#x8d;" d="M575.803 636.258l-2.363-1.182 8.665-18.117 2.363 1.182z" />
<glyph unicode="&#x8e;" d="M652.209 673.28l-2.363-0.788 7.877-16.542 2.363 1.182z" />
<glyph unicode="&#x8f;" d="M621.489 658.708l-1.969-1.182 7.877-17.329 2.363 1.182z" />
<glyph unicode="&#x90;" d="M636.849 665.797l-2.363-0.788 8.271-16.935 1.969 1.182z" />
<glyph unicode="&#x91;" d="M591.163 643.742l-2.363-1.182 8.271-17.723 2.363 1.182z" />
<glyph unicode="&#x92;" d="M606.523 651.225l-2.363-1.182 8.271-17.329 2.363 0.788z" />
<glyph unicode="&#x93;" d="M329.649 739.84c0 0-16.935-10.24-33.477-22.449s-74.437-153.994-71.286-159.114c2.757-5.12 153.206-24.812 163.446-26.388 9.846-1.575 15.36-3.938 21.662-2.363s14.178 11.028 14.178 11.028 7.483 1.182 8.665 5.12c1.182 3.938-2.363 3.938-6.302 5.908-3.938 1.575-7.089 7.483-9.846 10.634-2.757 2.757-16.935-0.394-22.449-2.757-5.12-2.363-14.178-6.302-18.905-7.089-4.726-0.394-31.902 2.757-55.532 15.754s-30.72 16.935-34.265 20.086c-3.545 2.757 53.169 91.766 53.169 91.766z" />
<glyph unicode="&#x94;" d="M432.837 545.28c1.182 3.938-2.363 3.938-6.302 5.908-3.938 1.575-7.089 7.483-9.846 10.634-2.757 2.757-16.935-0.394-22.449-2.757-5.12-2.363-14.178-6.302-18.905-7.089-4.726-0.394-31.902 2.757-55.532 15.754s-30.72 16.935-34.265 20.086c-1.182 0.788 3.938 11.028 11.815 24.418-19.298 2.363-35.84 9.058-47.262 14.966-14.572-34.658-26.388-66.954-25.206-69.317 2.757-5.12 153.206-24.812 163.446-26.388 9.846-1.575 15.36-3.938 21.662-2.363s14.178 11.028 14.178 11.028 7.483 1.182 8.665 5.12z" />
<glyph unicode="&#x95;" d="M624.64 639.015c0 0-12.997 18.511-11.028 19.298 1.575 0.394 13.391-10.634 16.542-13.391 2.757-2.757 2.363-6.302-0.394-9.846s-22.449-4.726-22.449-4.726l17.329 8.665z" />
<glyph unicode="&#x96;" d="M631.729 643.742c0 0-7.483 16.542-6.695 18.117 0.394 1.575 5.12-2.363 8.271-7.877s6.302-10.24 4.332-12.209c-3.545-3.151-5.908 1.969-5.908 1.969z" />
<glyph unicode="&#x97;" d="M638.031 647.68c0 0-7.483 16.542-6.695 18.117 0.394 1.575 5.12-2.363 8.271-7.877s6.302-10.24 4.332-12.209c-3.545-3.151-5.908 1.969-5.908 1.969z" />
<glyph unicode="&#x98;" d="M645.908 645.317c0 0-7.483 16.542-6.695 18.117 0.394 1.575 5.12-2.363 8.271-7.877s6.302-10.24 4.332-12.209c-3.938-3.151-5.908 1.969-5.908 1.969z" />
<glyph unicode="&#x99;" d="M604.554 650.043c0 0 6.302 13.391 7.089 14.178s12.209-2.757 12.209-3.545c0-0.788-10.24-1.969-10.24-1.969l-2.363-5.514-6.695-3.151z" />
<glyph unicode="&#x9a;" d="M526.572 288.886l-6.302-145.723 164.628-25.994 6.302 161.477z" />
<glyph unicode="&#x9b;" d="M549.809 268.8l-5.908-107.914 122.092-18.511 4.332 116.578z" />
</font>
</defs>
</svg>
