<?xml version="1.0" encoding="utf-8"?>
<!-- Generator: Adobe Illustrator 22.1.0, SVG Export Plug-In . SVG Version: 6.00 Build 0)  -->
<svg version="1.1" id="Layer_1" xmlns="http://www.w3.org/2000/svg" xmlns:xlink="http://www.w3.org/1999/xlink" x="0px" y="0px"
	 viewBox="0 0 260 260" style="enable-background:new 0 0 260 260;" xml:space="preserve">
<style type="text/css">
	.st0{fill:url(#SVGID_1_);}
	.st1{fill:url(#SVGID_2_);}
	.st2{fill:url(#SVGID_3_);}
	.st3{fill:url(#SVGID_4_);}
	.st4{fill:#373463;}
	.st5{fill:#F0E0D3;}
	.st6{fill:#1D1A4F;}
	.st7{fill:#FEC172;}
	.st8{fill:#FD9F24;}
	.st9{fill:#5CC097;}
	.st10{fill:#CC7151;}
	.st11{fill:#FD8867;}
</style>
<g>
	
		<linearGradient id="SVGID_1_" gradientUnits="userSpaceOnUse" x1="-17.2257" y1="152.7617" x2="160.6192" y2="-25.0832" gradientTransform="matrix(2.230117e-02 0.9998 -0.9998 2.230117e-02 171.2644 62.9468)">
		<stop  offset="0" style="stop-color:#4C13DB"/>
		<stop  offset="0.119" style="stop-color:#5216D6"/>
		<stop  offset="0.2736" style="stop-color:#6220C6"/>
		<stop  offset="0.4481" style="stop-color:#7D30AD"/>
		<stop  offset="0.6369" style="stop-color:#A24789"/>
		<stop  offset="0.8351" style="stop-color:#D2645C"/>
		<stop  offset="1" style="stop-color:#FF7F31"/>
	</linearGradient>
	<path class="st0" d="M201.7,206.2c31.5-32.4,25.7-101.1-27.9-111.5c-40.1-7.7-51.1-13.1-66.1-35.1c-9.4-13.8-30.6-33.5-59.7-18
		c-32.7,17.4-35.6,93.1-6,141.1C83.6,250.1,162.6,246.4,201.7,206.2z"/>
	
		<linearGradient id="SVGID_2_" gradientUnits="userSpaceOnUse" x1="231.3188" y1="221.4073" x2="298.1314" y2="154.5947" gradientTransform="matrix(0.5661 -0.8243 0.8243 0.5661 -66.1948 266.6992)">
		<stop  offset="0" style="stop-color:#4C13DB"/>
		<stop  offset="0.119" style="stop-color:#5216D6"/>
		<stop  offset="0.2736" style="stop-color:#6220C6"/>
		<stop  offset="0.4481" style="stop-color:#7D30AD"/>
		<stop  offset="0.6369" style="stop-color:#A24789"/>
		<stop  offset="0.8351" style="stop-color:#D2645C"/>
		<stop  offset="1" style="stop-color:#FF7F31"/>
	</linearGradient>
	<path class="st1" d="M221.1,123.7c9.5,19.1,9.7,28,7,58.4c-0.7,8.4,1.8,12.5,5.5,14.6c7.6,4.4,20.4-9.2,22.1-27.3
		c2.2-23.8-9.7-38.2-16.4-44.7c-8-7.8-14.7-11.8-17.8-10.6C218.7,115.1,218.4,118.2,221.1,123.7z"/>
	
		<linearGradient id="SVGID_3_" gradientUnits="userSpaceOnUse" x1="22.5142" y1="43.3897" x2="70.149" y2="-4.2451" gradientTransform="matrix(0.9847 0.1744 -0.1744 0.9847 -14.3982 9.4238)">
		<stop  offset="0" style="stop-color:#4C13DB"/>
		<stop  offset="0.119" style="stop-color:#5216D6"/>
		<stop  offset="0.2736" style="stop-color:#6220C6"/>
		<stop  offset="0.4481" style="stop-color:#7D30AD"/>
		<stop  offset="0.6369" style="stop-color:#A24789"/>
		<stop  offset="0.8351" style="stop-color:#D2645C"/>
		<stop  offset="1" style="stop-color:#FF7F31"/>
	</linearGradient>
	<path class="st2" d="M26.1,59.7c7.1-16.3,17.2-22.4,30.4-28c6.1-2.6-1.3-15.6-22.4-15.3C12.9,16.6,3.2,31.5,2.5,45
		C1.7,60.4,20,73.6,26.1,59.7z"/>
	<linearGradient id="SVGID_4_" gradientUnits="userSpaceOnUse" x1="66.9158" y1="28.4343" x2="77.5271" y2="17.8231">
		<stop  offset="0" style="stop-color:#4C13DB"/>
		<stop  offset="0.119" style="stop-color:#5216D6"/>
		<stop  offset="0.2736" style="stop-color:#6220C6"/>
		<stop  offset="0.4481" style="stop-color:#7D30AD"/>
		<stop  offset="0.6369" style="stop-color:#A24789"/>
		<stop  offset="0.8351" style="stop-color:#D2645C"/>
		<stop  offset="1" style="stop-color:#FF7F31"/>
	</linearGradient>
	<path class="st3" d="M67.3,27.5c1.6,1.2,11.5,0.7,12.6-3.8c0.8-3.6-7.1-11.2-12.2-4.9C65.6,21.5,64.5,25.4,67.3,27.5z"/>
	<g>
		<path class="st4" d="M96.5,209.4c0,0-0.3,6.3,0.3,7.1c0.6,0.7,7.2,3,8.1,3.6c0.9,0.6,3.7,0.9,4.3-0.7c0.6-1.6-1.6-3.3-3-4.5
			c-1.3-1.2-3.7-2.7-4.2-3.9c-0.4-1.2-0.4-2.2-0.4-2.2L96.5,209.4z"/>
		<path class="st5" d="M109.2,219.4c0.5-1.3-0.8-2.5-2-3.6c-0.4,0.1-0.9,0.2-1.3,0.5c-1.9,0.9-2.4,1.5-2.4,1.5l-7.1-3.1
			c0,0.9,0.1,1.7,0.3,1.9c0.6,0.7,7.2,3,8.1,3.6C105.7,220.7,108.6,221,109.2,219.4z"/>
		<g>
			<path class="st6" d="M75.1,214.5c-0.8,0-1.6-0.1-2.4-0.2c-2.6-0.5-3.2-1.6-3.3-2.5c-0.3-2.7,4.1-6.7,11.1-10
				c1.4-0.7,3.2-1.2,5.2-1.7c2.4-12.3,3.8-66.8,3.8-67.3l0.5,0c0,0.6-1.4,54.4-3.8,67.2c12.4-2.8,33.3-2,45.4-1.6
				c17.1,0.6,24.9,1,24.9,1l0,0.5c-0.1,0-7.9-0.3-24.9-1c-12.1-0.5-33.2-1.2-45.5,1.6c0,0.2-0.1,0.4-0.1,0.6
				C83.6,210.4,80.4,214.5,75.1,214.5z M85.6,200.6c-1.9,0.5-3.5,1-4.9,1.6c-6.7,3.1-11.2,7-10.8,9.5c0.2,1.3,1.7,1.8,3,2.1
				c6.5,1.2,10.1-2.5,12.7-12.8C85.5,200.9,85.5,200.7,85.6,200.6z"/>
		</g>
		<polygon class="st6" points="133.7,170.4 144.5,166.2 182.3,167.7 175.5,173 		"/>
		<polygon class="st6" points="182.3,167.7 181.1,208.1 173.9,214 175.5,173 		"/>
		<path class="st4" d="M134.2,157.7c0,0-2.4,4.2-2.1,5.2c0.3,1,5.2,1.9,7.5,3.4c2.2,1.5,4.3,1.9,5.7,1.5c1.3-0.4,2.5-0.3,1.9-1.9
			c-0.6-1.6-2.4-1.3-3.7-2.1c-1.3-0.7-4.3-4.5-4.6-4.9C138.5,158.4,134.2,157.7,134.2,157.7z"/>
		<path class="st5" d="M143.9,164c-0.2,0.1-0.4,0.3-0.6,0.6c-0.7,1-0.9,1.8-0.9,1.8s-2.1-1.6-5.4-3c-2.2-0.9-3.9-1.3-4.8-1.5
			c-0.1,0.4-0.2,0.8-0.1,1.1c0.3,1,5.2,1.9,7.5,3.4c2.2,1.5,4.3,1.9,5.7,1.5c1.3-0.4,2.5-0.3,1.9-1.9
			C146.7,164.4,145.2,164.5,143.9,164z"/>
		<path class="st7" d="M107.1,47.8c0,0,8.4,1,9.7,4c1.3,3,6.9,27.3,7.3,28.6c0.4,1.3,11.7,3.7,18.4,3.7c6.7,0,4,0.7,1.9,2.1
			c-2.1,1.3-8.4,2.8-14.8,3.7c-6.4,0.9-10.8,0.3-12.7-2.5c-1.9-2.8-4.8-16.6-6.7-25.9C108.3,52.3,107.1,47.8,107.1,47.8z"/>
		<path class="st4" d="M116.8,51.8c-1.3-3-9.7-4-9.7-4s1.2,4.5,3.1,13.8c0.6,3,1.4,6.6,2.1,10c0.6-0.1,1.4-0.2,2.2-0.4
			c2.1-0.5,4.8-2,6.6-3.1C119.4,61,117.5,53.4,116.8,51.8z"/>
		<polygon class="st5" points="81.4,84.9 78.9,97 80.2,96.8 83.5,85.9 		"/>
		<path class="st4" d="M156.7,111.9c-5.2-4.9-24.4-5.8-32.2-7.3c-1.9-0.4-3.4-0.7-4.6-1c-2.3-10.6-7.9-31-8.9-42
			c-0.2-2.7-1.3-15.4-6.4-14.1c-9.7,2.4-26.8,7.3-27.4,19.6c-0.5,9.9,3.6,20.5,5.5,30.2c0.9,4.8,1.8,8.9,2.6,12.3l-0.1,0
			c0,0,8.2,37.3,8.2,43.4c0,6.1-1.2,9.4-1.5,18.4c-0.3,9,3.6,37.5,4.5,38.1c0.9,0.6,2.8,0.6,3.7,0.3c0.9-0.3,1,0.1,1.3-0.9
			c0.3-1,1.8-21.1,2.8-42.8c1-21.7,4.8-38.3,11.2-42.8c6.4-4.5,32.5-3.9,32.6-0.6c0.1,3.3-14.7,34.4-14.1,35
			c0.6,0.6,3.9,1.5,4.6,1.2c0.7-0.3,14.8-23.1,19.3-30.8C162.7,120.2,161.9,116.8,156.7,111.9z"/>
		<path class="st5" d="M104.8,45c0,0,3.5,26.7,13,40.5l2.7,1.9c0.5,0-8.6-20.4-12.7-42.4H104.8z"/>
		<path class="st7" d="M104.2,50.9c-0.6-0.7-1.1-1.3-1.6-2c-1.5-2.1-0.9-6.5,0.8-8.1c-0.2-0.3-0.3-0.6-0.5-0.9
			c-2-2.7-7.6-1.6-9.5,0.6c0.5,0.8,0.9,1.5,0.9,2.1c0.1,1.7-0.5,4.3-1.7,7.1c-0.3,0.8-1.8,1.6-2.9,2.6c1.6,2.8,6.2,9,8.2,10
			C100.2,63.5,103.5,53.8,104.2,50.9z"/>
		<path class="st8" d="M102.4,42.2c0.3-0.7,0.8-1.4,1.3-1.7c2-1.2,6.8-2.8,8-5.2c0,0,0.6-3.6-2.2-7c-2.8-3.5-8.3-5.3-12.6-3.9
			c-5.8,1.9-7,7.2-5.8,11.1c0.7,2.2,2.1,4.3,2.9,6c1.2,0.3,2.9,0.6,5.1,0.7C100.1,42.3,101.3,42.3,102.4,42.2z"/>
		<path class="st7" d="M98.7,37.7c0,0-1.4-4.2-3.1-4.2c-1.7,0-2.5,4.1-1.7,6.1c0.8,2,2.3,1.2,2.3,1.2s1.3,4.4,2.2,5.7
			c0.9,1.2,3.9,4.2,7.4,4.2c1.5,0,3.5-7.5,4-10.5c0.5-3,0.5-4.2-0.3-6.6c-0.8-2.4-4.1-0.9-6.9,1.1C99.7,36.9,98.7,37.7,98.7,37.7z"
			/>
		<path class="st8" d="M102.4,35.9c0,0,1-1.7,2.3-1c1.4,0.7,2.6,4.6,4.1,3.7c1.5-0.9,1.7-3.6,2.8-2.6c1.1,1,5.7,3.2,7.5,2.2
			c1.8-1,0.9-4.8-0.9-5.2c-1.7-0.4-3.7,0.1-2.8-1.6c0.9-1.7,2.1-3,0.1-4.8c-2-1.8-3.1,1.2-5.3,2.3c-2.2,1.1-4.6,0.6-4.6,0.6"/>
		<path class="st9" d="M101.7,119c-5.2,2.3-10,2.9-13.8,2.9c2.4,11.4,5.6,27.1,5.6,30.9c0,6.1-1.2,9.4-1.5,18.4
			c-0.3,9,3.6,37.5,4.5,38.1c0.9,0.6,2.8,0.6,3.7,0.3c0.9-0.3,1,0.1,1.3-0.9c0.3-1,1.8-21.1,2.8-42.8c1-21.7,4.8-38.3,11.2-42.8
			c6.4-4.5,32.5-3.9,32.6-0.6c0.1,3.3-14.7,34.4-14.1,35c0.6,0.6,3.9,1.5,4.6,1.2c0.7-0.3,14.8-23.1,19.3-30.8s3.7-11.2-1.5-16.2
			c-5.2-4.9-24.4-5.8-32.2-7.3c-1.9-0.4-3.4-0.7-4.6-1C118.6,105.3,113.2,114,101.7,119z"/>
		<path class="st5" d="M86.5,132.6l0.9,2.1c0.2,0.4,0.6,0.7,1.1,0.8l1.7,0c0.5,0,1-0.3,1.2-0.8l1-2.4L86.5,132.6z"/>
		<g>
			<path class="st8" d="M124.2,94.3c0.4-0.9-1.2-3.7-1.6-4.5c-3.4-6.4-13.1-6.6-17.3-1c-1.5,2-2.4,4.7-4.4,6.3
				c-4.3,3.4-10.5-0.7-15.1-1.3c-10.1-1.1-17,8.6-16.7,17.8c0.2,8.6,5.7,16.9,13.5,20.6c0.4,0.2,0.8,0.4,1.2,0.5
				c9.1,3.6,17.9-0.8,22.9-8.7c1.5-2.4,2.8-4.9,4.3-7.2c0.8-1.2,1.8-2.4,3.2-3c2.7-1.1,6.2-0.3,9.1-1.1c2-0.6,5-1.6,6-3.7
				c1.1-2.3-0.3-2.4-2.2-2.3c-1.9,0.1-4.2-1.7-4.4-5.1C122.4,98.3,124.2,94.3,124.2,94.3z"/>
			<path class="st5" d="M104.8,117.2c0.5,1.1,1.9,1.3,2.8,0.5l15.1-15.3c0-0.2-0.1-0.4-0.1-0.6c0-0.8,0-1.6,0.1-2.4l-7.7-1.9
				l-1.6-3.3l-6.1,3.1l2.8,5.1l-10.7,4.1L104.8,117.2z"/>
			<polygon class="st10" points="115.1,97.4 117.6,102.6 171.6,74.9 169.7,70.8 			"/>
			<path class="st8" d="M169.7,70.8l1.3-5c0,0,4.3,0.9,9.4-3.7c0,0,3.7,3.4,4.5,9.2c0,0-7.3,1.6-8.7,5.3l-4.6-1.7L169.7,70.8z"/>
			<g>
				<path class="st5" d="M174.4,68.6c0-0.4-0.4-0.7-0.8-0.7c-0.4,0-0.7,0.4-0.7,0.8c0,0.4,0.4,0.7,0.8,0.7
					C174.2,69.4,174.5,69,174.4,68.6z"/>
				<path class="st5" d="M176.9,67.5c0-0.4-0.4-0.7-0.8-0.7c-0.4,0-0.7,0.4-0.7,0.8c0,0.4,0.4,0.7,0.8,0.7
					C176.6,68.2,176.9,67.9,176.9,67.5z"/>
				<circle class="st5" cx="178.6" cy="66.4" r="0.7"/>
			</g>
			<g>
				<path class="st5" d="M176.4,72.7c0-0.4-0.4-0.7-0.8-0.7c-0.4,0-0.7,0.4-0.7,0.8c0,0.4,0.4,0.7,0.8,0.7
					C176.1,73.5,176.4,73.1,176.4,72.7z"/>
				<path class="st5" d="M178.8,71.5c0-0.4-0.4-0.7-0.8-0.7c-0.4,0-0.7,0.4-0.7,0.8c0,0.4,0.4,0.7,0.8,0.7
					C178.5,72.3,178.8,71.9,178.8,71.5z"/>
				<path class="st5" d="M181.2,70.3c0-0.4-0.4-0.7-0.8-0.7c-0.4,0-0.7,0.4-0.7,0.8c0,0.4,0.4,0.7,0.8,0.7
					C181,71.1,181.3,70.7,181.2,70.3z"/>
			</g>
			<path class="st4" d="M96.1,115.9l-5.1-10.7c-0.2-0.3,0-0.7,0.3-0.9l0,0c0.3-0.2,0.7,0,0.9,0.3l5.1,10.7c0.2,0.3,0,0.7-0.3,0.9
				l0,0C96.7,116.3,96.3,116.2,96.1,115.9z"/>
			<path class="st5" d="M88.5,124.4c-0.1-0.7-0.7-1.3-1.4-1.2c-0.7,0.1-1.3,0.7-1.2,1.4c0.1,0.7,0.7,1.3,1.4,1.2
				S88.6,125.2,88.5,124.4z"/>
			<path class="st5" d="M98.4,125.8c-0.1-0.7-0.7-1.3-1.4-1.2c-0.7,0.1-1.3,0.7-1.2,1.4c0.1,0.7,0.7,1.3,1.4,1.2
				C97.9,127.2,98.5,126.6,98.4,125.8z"/>
			<path class="st5" d="M93.8,120c-0.1-0.7-0.7-1.3-1.4-1.2c-0.7,0.1-1.3,0.7-1.2,1.4c0.1,0.7,0.7,1.3,1.4,1.2
				C93.3,121.3,93.8,120.7,93.8,120z"/>
			<g>
				<polygon class="st5" points="134.5,87.9 134,88.2 136.3,93 136.9,92.7 				"/>
				<polygon class="st5" points="138.4,86 137.9,86.3 140.1,91.1 140.7,90.8 				"/>
				<polygon class="st5" points="129.5,90.4 128.9,90.6 131.3,95.6 131.9,95.3 				"/>
				<polygon class="st5" points="142.3,84.1 141.7,84.4 144,89.1 144.5,88.8 				"/>
				<polygon class="st5" points="124.8,92.7 124.2,92.9 126.6,98 127.2,97.7 				"/>
				<polygon class="st5" points="121.3,100.7 121.9,100.4 119.5,95.3 118.9,95.5 				"/>
				<polygon class="st5" points="146.2,82.2 145.6,82.5 147.8,87.1 148.4,86.8 				"/>
				<polygon class="st5" points="165.6,72.8 165,73 167,77.2 167.6,76.9 				"/>
				<polygon class="st5" points="157.8,76.5 157.3,76.8 159.3,81.2 159.9,80.9 				"/>
				<polygon class="st5" points="161.7,74.7 161.1,74.9 163.2,79.2 163.7,78.9 				"/>
				<polygon class="st5" points="150.1,80.3 149.5,80.6 151.6,85.1 152.2,84.8 				"/>
				<polygon class="st5" points="154,78.4 153.4,78.7 155.5,83.1 156.1,82.9 				"/>
			</g>
		</g>
		<path class="st4" d="M83.7,55.9c0,0-4.3,2.6-8.5,5.7c-4.2,3.1-18.9,39.1-18.1,40.4c0.7,1.3,38.9,6.3,41.5,6.7
			c2.5,0.4,3.9,1,5.5,0.6c1.6-0.4,3.6-2.8,3.6-2.8s1.9-0.3,2.2-1.3c0.3-1-0.6-1-1.6-1.5c-1-0.4-1.8-1.9-2.5-2.7
			c-0.7-0.7-4.3,0.1-5.7,0.7c-1.3,0.6-3.6,1.6-4.8,1.8c-1.2,0.1-8.1-0.7-14.1-4c-6-3.3-7.8-4.3-8.7-5.1C71.6,93.7,86,71.1,86,71.1"
			/>
		<path class="st7" d="M109.9,105.3c0.3-1-0.6-1-1.6-1.5c-1-0.4-1.8-1.9-2.5-2.7c-0.7-0.7-4.3,0.1-5.7,0.7c-1.3,0.6-3.6,1.6-4.8,1.8
			c-1.2,0.1-8.1-0.7-14.1-4c-6-3.3-7.8-4.3-8.7-5.1c-0.3-0.2,1-2.8,3-6.2c-4.9-0.6-9.1-2.3-12-3.8c-3.7,8.8-6.7,17-6.4,17.6
			c0.7,1.3,38.9,6.3,41.5,6.7c2.5,0.4,3.9,1,5.5,0.6c1.6-0.4,3.6-2.8,3.6-2.8S109.6,106.3,109.9,105.3z"/>
		<path class="st11" d="M158.6,81.5c0,0-3.3-4.7-2.8-4.9c0.4-0.1,3.4,2.7,4.2,3.4c0.7,0.7,0.6,1.6-0.1,2.5c-0.7,0.9-5.7,1.2-5.7,1.2
			L158.6,81.5z"/>
		<path class="st11" d="M160.4,80.3c0,0-1.9-4.2-1.7-4.6c0.1-0.4,1.3,0.6,2.1,2c0.8,1.4,1.6,2.6,1.1,3.1
			C161,81.6,160.4,80.3,160.4,80.3z"/>
		<path class="st11" d="M162,79.3c0,0-1.9-4.2-1.7-4.6c0.1-0.4,1.3,0.6,2.1,2c0.8,1.4,1.6,2.6,1.1,3.1C162.6,80.6,162,79.3,162,79.3
			z"/>
		<path class="st11" d="M164,79.9c0,0-1.9-4.2-1.7-4.6c0.1-0.4,1.3,0.6,2.1,2c0.8,1.4,1.6,2.6,1.1,3.1C164.5,81.2,164,79.9,164,79.9
			z"/>
		<path class="st11" d="M153.5,78.7c0,0,1.6-3.4,1.8-3.6c0.2-0.2,3.1,0.7,3.1,0.9c0,0.2-2.6,0.5-2.6,0.5l-0.6,1.4L153.5,78.7z"/>
		<polygon class="st4" points="133.7,170.4 132.1,207.4 173.9,214 175.5,173 		"/>
		<polygon class="st5" points="139.6,175.5 138.1,202.9 169.1,207.6 170.2,178 		"/>
	</g>
</g>
</svg>
